<?xml version="1.0" encoding="UTF-8"?>
<svg width="752pt" height="752pt" version="1.1" viewBox="0 0 752 752" xmlns="http://www.w3.org/2000/svg" fill="#0000EE">
 <g>
  <path d="m412.92 254.22h-70.375c-9.1406 0-16.574 7.4336-16.574 16.574v70.375c0 9.1406 7.4336 16.574 16.574 16.574h70.375c9.1406 0 16.574-7.4336 16.574-16.574v-70.375c0-9.1367-7.4336-16.574-16.574-16.574zm-29.75 58.707h-10.867c-2.6055 0-3.8359-1.9336-2.7344-4.2891l6.1562-13.188c1.1016-2.3633 2.9062-2.3633 4.0117 0l6.1602 13.195c1.1016 2.3477-0.12891 4.2812-2.7266 4.2812z"/>
  <path d="m412.92 368.68h-70.375c-9.1406 0-16.574 7.4336-16.574 16.574v70.371c0 9.1406 7.4336 16.574 16.574 16.574h70.375c9.1406 0 16.574-7.4336 16.574-16.574v-70.371c0-9.1406-7.4336-16.574-16.574-16.574zm-27.02 49.109-6.1602 13.188c-1.1016 2.3594-2.9062 2.3594-4.0117 0l-6.1602-13.188c-1.1016-2.3594 0.12891-4.2891 2.7344-4.2891h10.867c2.5977 0 3.8281 1.9297 2.7305 4.2891z"/>
  <path d="m298.46 367.19h-70.375c-9.1406 0-16.574 7.4336-16.574 16.574v70.375c0 9.1406 7.4336 16.574 16.574 16.574h70.375c9.1406 0 16.574-7.4336 16.574-16.574l0.003907-70.367c0-9.1445-7.4375-16.582-16.578-16.582zm-27.387 57.199c0 2.6055-1.9336 3.8359-4.2891 2.7344l-13.188-6.168c-2.3633-1.0977-2.3633-2.9023 0-4.0078l13.188-6.168c2.3633-1.0977 4.2891 0.12891 4.2891 2.7344z"/>
  <path d="m527.37 367.19h-70.375c-9.1406 0-16.574 7.4336-16.574 16.574v70.375c0 9.1406 7.4336 16.574 16.574 16.574h70.375c9.1406 0 16.574-7.4336 16.574-16.574v-70.367c0-9.1445-7.4336-16.582-16.574-16.582zm-25.508 53.762-13.188 6.168c-2.3594 1.0977-4.2891-0.12891-4.2891-2.7344v-10.867c0-2.6055 1.9336-3.8359 4.2891-2.7344l13.188 6.168c2.3594 1.0977 2.3594 2.9023 0 4z"/>
 </g>
</svg>
