<?xml version="1.0" encoding="UTF-8"?>
<svg width="752pt" height="752pt" version="1.1" viewBox="0 0 752 752" xmlns="http://www.w3.org/2000/svg" fill="white">
 <g>
  <path d="m278.52 381.92h-95.766c-10.949 0-19.863 8.9062-19.863 19.855v99.988c0 10.953 8.9141 19.855 19.863 19.855h95.766c10.953 0 19.863-8.9062 19.863-19.855v-99.988c0-10.949-8.9102-19.855-19.863-19.855zm-19.715 8.7422c7.6875 0 13.941 6.25 13.941 13.93v74.645c0 7.6875-6.2578 13.938-13.941 13.938h-57.742c-7.6797 0-13.934-6.25-13.934-13.938v-74.648c0-7.6758 6.25-13.93 13.934-13.93zm-92.812 11.113c0-9.2383 7.5195-16.75 16.762-16.75h84.691l-8.8555 2.5234h-57.527c-9.3906 0-17.039 7.6406-17.039 17.039l-0.003907 74.035-18.027 19.223z"/>
  <path d="m423.88 381.92h-95.758c-10.953 0-19.863 8.9062-19.863 19.855v99.988c0 10.953 8.9062 19.855 19.863 19.855h95.758c10.953 0 19.863-8.9062 19.863-19.855v-99.988c0.003906-10.949-8.9023-19.855-19.863-19.855zm-19.707 8.7422c7.6875 0 13.938 6.25 13.938 13.93v74.645c0 7.6875-6.25 13.938-13.938 13.938h-57.746c-7.6875 0-13.934-6.25-13.934-13.938v-74.648c0-7.6758 6.2461-13.93 13.934-13.93zm-92.809 11.113c0-9.2383 7.5195-16.75 16.762-16.75h84.688l-8.8516 2.5234h-57.535c-9.3945 0-17.043 7.6406-17.043 17.039v74.035l-18.023 19.223v-96.07z"/>
  <path d="m423.88 230.38h-95.758c-10.953 0-19.863 8.9062-19.863 19.863v99.988c0 10.949 8.9062 19.867 19.863 19.867l95.758-0.003906c10.953 0 19.863-8.918 19.863-19.867v-99.984c0.003906-10.953-8.9023-19.863-19.863-19.863zm-19.707 8.7422c7.6875 0 13.938 6.25 13.938 13.934v74.641c0 7.6875-6.25 13.938-13.938 13.938h-57.746c-7.6875 0-13.934-6.25-13.934-13.938v-74.641c0-7.6875 6.2461-13.934 13.934-13.934zm-92.809 11.121c0-9.2383 7.5195-16.762 16.762-16.762h84.688l-8.8516 2.5352h-57.535c-9.3945 0-17.043 7.6445-17.043 17.039v74.027l-18.023 19.223v-96.062z"/>
  <path d="m569.25 381.92h-95.766c-10.953 0-19.863 8.9062-19.863 19.855v99.988c0 10.953 8.9141 19.855 19.863 19.855h95.766c10.953 0 19.863-8.9062 19.863-19.855v-99.988c0-10.949-8.9141-19.855-19.863-19.855zm-19.715 8.7422c7.6914 0 13.941 6.25 13.941 13.93v74.645c0 7.6875-6.25 13.938-13.941 13.938h-57.746c-7.6797 0-13.934-6.25-13.934-13.938v-74.648c0-7.6758 6.25-13.93 13.934-13.93zm-92.812 11.113c0-9.2383 7.5195-16.75 16.762-16.75h84.691l-8.8555 2.5234h-57.531c-9.3906 0-17.039 7.6406-17.039 17.039l-0.003906 74.035-18.027 19.223v-96.07z"/>
  <path d="m515.66 455.61v-8.6016h-28.168v-3.457h28.168v-8.6094l17.902 10.352z"/>
  <path d="m360.77 468.33-10.34-17.898h8.6016v-28.172h3.4609v28.172h8.6055z"/>
  <path d="m245.58 447h-28.172v8.6094l-17.906-10.344 17.906-10.344v8.6016h28.172z"/>
  <path d="m362.5 288.22v28.172h-3.457v-28.172h-8.6094l10.344-17.898 10.344 17.898z"/>
 </g>
</svg>
